<?xml version="1.0" standalone="no"?>
<!DOCTYPE svg PUBLIC "-//W3C//DTD SVG 20010904//EN"
 "http://www.w3.org/TR/2001/REC-SVG-20010904/DTD/svg10.dtd">
<svg version="1.0" xmlns="http://www.w3.org/2000/svg"
 width="31.000000pt" height="31.000000pt" viewBox="0 0 31.000000 31.000000"
 preserveAspectRatio="xMidYMid meet">
<metadata>
Created by potrace 1.16, written by Peter Selinger 2001-2019
</metadata>
<g transform="translate(0.000000,31.000000) scale(0.100000,-0.100000)"
fill="#000000" stroke="none">
<path d="M10 270 c0 -11 6 -20 13 -20 7 0 23 -20 35 -45 18 -36 20 -50 11 -66
-21 -41 -6 -49 91 -49 73 0 90 3 90 15 0 12 -15 15 -76 15 -47 0 -73 4 -69 10
3 6 31 10 60 10 l55 0 29 52 c17 28 28 55 25 60 -3 4 -49 8 -104 8 -78 0 -99
3 -104 15 -3 8 -17 15 -31 15 -18 0 -25 -5 -25 -20z"/>
</g>
</svg>
