<?xml version="1.0" standalone="no"?>
<!DOCTYPE svg PUBLIC "-//W3C//DTD SVG 20010904//EN"
 "http://www.w3.org/TR/2001/REC-SVG-20010904/DTD/svg10.dtd">
<svg version="1.0" xmlns="http://www.w3.org/2000/svg"
 width="64.000000pt" height="64.000000pt" viewBox="0 0 64.000000 64.000000"
 preserveAspectRatio="xMidYMid meet">
<metadata>
Created by potrace 1.16, written by Peter Selinger 2001-2019
</metadata>
<g transform="translate(0.000000,64.000000) scale(0.100000,-0.100000)"
fill="#7811F2" stroke="none">
<path d="M29 611 l-29 -29 0 -262 0 -262 29 -29 29 -29 262 0 262 0 29 29 29
29 0 262 0 262 -29 29 -29 29 -262 0 -262 0 -29 -29z m363 -121 c69 -20 90
-89 41 -137 -17 -18 -22 -28 -13 -31 44 -15 69 -76 49 -123 -20 -49 -74 -69
-191 -69 l-98 0 0 185 0 185 88 0 c48 0 104 -5 124 -10z"/>
<path d="M230 395 l0 -55 75 0 c68 0 76 2 91 25 16 25 12 63 -10 77 -6 4 -44
8 -83 8 l-73 0 0 -55z"/>
<path d="M230 240 l0 -60 83 0 c95 0 107 7 107 62 0 49 -18 58 -114 58 l-76 0
0 -60z"/>
</g>
</svg>
